<?xml version="1.0" standalone="no"?>
<!DOCTYPE svg PUBLIC "-//W3C//DTD SVG 20010904//EN"
 "http://www.w3.org/TR/2001/REC-SVG-20010904/DTD/svg10.dtd">
<svg version="1.0" xmlns="http://www.w3.org/2000/svg"
 width="882.000000pt" height="964.000000pt" viewBox="0 0 882.000000 964.000000"
 preserveAspectRatio="xMidYMid meet">

<g transform="translate(0.000000,964.000000) scale(0.100000,-0.100000)"
fill="#000000" stroke="none">
<path d="M4244 9591 c-113 -54 -224 -126 -300 -195 l-52 -46 -53 25 c-105 48
-173 60 -329 60 -120 0 -158 -4 -223 -23 -150 -43 -300 -133 -398 -240 -54
-58 -118 -147 -139 -193 -11 -24 -11 -24 -183 -24 -133 0 -190 -4 -252 -19
-628 -147 -1045 -660 -1046 -1287 -1 -227 49 -440 142 -621 23 -43 40 -80 38
-82 -2 -1 -25 -10 -52 -20 -110 -41 -180 -157 -179 -298 l0 -78 -28 0 c-16 0
-54 -8 -87 -18 -147 -46 -266 -168 -313 -320 -38 -123 -20 -308 40 -397 11
-16 20 -34 20 -40 0 -5 -28 -21 -63 -34 -291 -110 -577 -389 -734 -716 l-48
-100 0 -530 0 -530 62 -125 c167 -338 387 -562 712 -725 431 -215 879 -186
1219 80 39 30 72 55 75 55 2 0 7 -24 10 -52 13 -109 117 -252 222 -306 131
-66 302 -67 413 -2 l33 20 54 -54 c75 -75 187 -130 296 -145 153 -21 314 26
427 125 28 24 53 41 55 37 29 -48 40 -499 18 -743 -59 -670 -112 -1036 -231
-1603 -40 -194 -41 -229 -10 -262 60 -64 214 -123 345 -132 190 -13 372 47
509 171 l39 35 50 -45 c193 -173 546 -201 779 -60 l58 35 56 -20 c31 -11 92
-25 135 -32 151 -22 393 23 504 94 37 24 45 34 45 59 0 17 -40 119 -90 231
-119 263 -180 416 -251 629 -188 570 -242 1082 -158 1516 22 114 54 214 70
214 5 0 27 -12 48 -26 64 -42 216 -103 325 -130 124 -31 333 -43 454 -25 243
36 481 158 659 337 235 239 374 582 377 937 l1 138 25 -8 c14 -4 63 -8 110 -8
72 1 94 5 142 28 70 34 138 107 168 181 l23 54 68 4 c278 20 469 348 366 628
-11 30 -28 67 -38 82 -27 37 -24 43 25 62 76 29 222 133 314 224 130 128 222
273 277 436 24 72 25 84 25 334 0 247 -1 264 -25 345 -54 187 -160 371 -297
513 -134 139 -284 232 -418 257 -58 11 -61 13 -56 37 31 140 38 213 33 320
-14 276 -124 526 -317 719 -264 264 -650 387 -1023 324 -97 -16 -100 -15 -110
3 -28 50 -111 123 -170 150 -80 36 -210 45 -283 20 -26 -9 -51 -13 -54 -9 -4
5 -12 28 -19 53 -8 25 -31 81 -53 125 -144 286 -405 534 -682 647 l-68 28
-467 0 -466 -1 -101 -48z m771 -77 c360 -57 657 -253 938 -622 l101 -133 -47
-40 c-68 -58 -122 -159 -86 -159 6 0 41 20 78 44 105 70 161 89 266 90 65 0
101 -5 130 -17 56 -25 145 -80 145 -90 0 -4 -21 -17 -47 -29 -106 -46 -230
-144 -209 -165 4 -4 35 1 69 10 201 56 252 67 344 76 339 31 684 -86 915 -312
211 -205 317 -462 344 -833 l6 -91 -67 -6 c-69 -7 -181 -49 -171 -66 3 -5 45
-12 93 -16 127 -10 205 -30 293 -76 247 -128 451 -418 526 -749 34 -151 34
-338 -1 -476 -46 -181 -154 -365 -307 -525 -76 -79 -198 -189 -209 -189 -5 0
-28 14 -51 30 -73 51 -206 88 -222 61 -4 -5 32 -34 79 -65 139 -93 195 -180
203 -318 2 -43 -1 -99 -8 -130 -29 -123 -120 -237 -232 -290 -95 -45 -94 -45
-101 12 -7 56 -35 126 -61 153 -36 35 -41 22 -41 -100 0 -112 -2 -121 -30
-171 -34 -63 -71 -97 -142 -129 -43 -20 -65 -23 -130 -21 -73 3 -78 4 -85 28
-86 301 -171 466 -327 633 -59 62 -124 107 -137 95 -3 -4 31 -70 76 -147 162
-276 240 -527 240 -769 0 -163 -63 -419 -141 -573 -128 -256 -304 -426 -554
-535 -157 -69 -353 -99 -537 -83 -129 11 -183 21 -326 60 -92 26 -113 35 -109
48 3 9 19 48 35 87 17 40 42 127 57 195 36 169 75 249 164 331 71 65 128 101
218 137 l52 20 34 -48 c48 -66 136 -111 219 -111 72 0 73 13 6 50 -76 42 -115
77 -138 125 -32 67 -24 125 33 238 26 50 44 94 41 99 -3 4 -26 8 -52 8 -102 0
-166 38 -229 138 -19 29 -38 50 -43 47 -15 -10 -12 -91 6 -134 16 -40 16 -40
-17 -88 -60 -87 -140 -159 -225 -200 -120 -58 -174 -118 -259 -286 -64 -127
-136 -229 -151 -214 -3 3 1 28 10 54 33 96 48 445 25 579 -45 257 87 590 311
785 l56 48 64 -26 c106 -43 246 -42 305 1 25 18 20 20 -92 34 -194 26 -322
144 -357 332 -8 39 -16 73 -18 76 -3 2 -28 -7 -56 -21 -175 -84 -335 -37 -453
133 -36 51 -49 53 -49 9 0 -84 99 -213 197 -259 27 -13 49 -23 51 -24 2 -1 -4
-51 -12 -111 -32 -211 -85 -362 -181 -514 -111 -176 -135 -262 -135 -497 0
-169 -9 -199 -81 -277 -46 -50 -86 -75 -118 -75 -45 0 -130 168 -216 426 -47
143 -89 230 -169 353 -54 82 -66 111 -66 154 1 48 26 110 52 126 53 34 125
118 141 166 19 53 22 85 8 85 -4 0 -31 -27 -60 -60 -69 -79 -124 -111 -205
-117 -119 -10 -205 36 -306 163 -35 43 -62 70 -64 62 -3 -7 -12 -49 -20 -93
-22 -112 -68 -200 -129 -243 -43 -31 -58 -36 -130 -41 -45 -3 -82 -10 -82 -16
0 -5 20 -20 45 -33 75 -38 161 -27 248 32 l50 33 35 -33 c102 -96 146 -178
177 -324 25 -122 55 -193 111 -268 77 -101 84 -148 44 -268 -47 -140 -70 -151
-170 -83 -116 78 -223 124 -382 163 -135 33 -177 68 -330 273 -63 83 -152 194
-198 245 -46 51 -97 118 -114 148 -30 56 -64 175 -76 266 l-6 51 53 26 c70 35
125 81 159 136 27 42 38 81 22 81 -4 0 -33 -20 -65 -45 -31 -25 -83 -58 -115
-73 -50 -23 -71 -27 -153 -27 -115 0 -170 22 -280 111 -39 31 -72 55 -73 53
-2 -2 1 -58 7 -124 12 -148 -1 -252 -43 -342 -36 -75 -114 -157 -185 -193 -66
-33 -71 -50 -14 -50 82 1 185 56 243 131 17 21 36 38 44 39 8 0 51 -37 95 -82
108 -111 146 -184 196 -381 47 -186 69 -247 122 -328 71 -111 126 -166 283
-284 104 -77 172 -136 209 -181 89 -107 184 -324 159 -362 -14 -23 -156 -98
-223 -118 -162 -47 -342 -17 -508 86 l-34 21 40 43 c39 43 59 82 48 93 -3 4
-36 -15 -73 -40 -150 -103 -297 -119 -448 -49 -105 50 -188 152 -225 279 -13
41 -12 43 20 80 75 85 174 262 156 280 -3 3 -68 -57 -143 -134 -228 -231 -412
-328 -671 -352 -463 -42 -980 264 -1231 730 -54 101 -106 238 -138 367 -25 97
-27 125 -27 297 -1 148 3 209 18 275 86 400 313 725 680 978 l88 61 47 -39
c25 -21 67 -48 94 -59 57 -25 142 -37 151 -23 3 6 -31 35 -78 66 -134 87 -200
189 -213 331 -7 78 17 192 55 258 43 75 125 151 212 196 43 23 80 41 82 41 3
0 19 -19 36 -43 34 -48 115 -98 131 -82 6 6 -4 37 -27 85 -34 69 -37 82 -37
160 0 103 19 145 96 214 l51 46 77 -80 c43 -44 83 -80 89 -80 24 0 21 21 -13
86 -120 234 -176 421 -195 652 -34 418 127 812 438 1075 144 121 292 204 469
263 105 36 342 89 351 79 3 -2 -2 -28 -12 -57 -29 -91 -41 -226 -29 -321 12
-86 38 -166 50 -153 4 3 10 62 14 129 17 289 128 520 327 679 185 147 444 214
693 179 110 -16 117 -20 86 -57 -67 -80 -96 -144 -64 -144 6 0 65 38 129 84
360 258 724 352 1123 290z m433 -4497 c6 -7 8 -18 4 -24 -11 -17 -74 -26 -102
-14 -22 10 -20 10 15 6 47 -6 85 11 48 21 -13 4 -20 10 -17 15 8 13 40 11 52
-4z m-171 -64 c-2 -16 -4 -5 -4 22 0 28 2 40 4 28 2 -13 2 -35 0 -50z m103 47
c18 -12 2 -12 -25 0 -13 6 -15 9 -5 9 8 0 22 -4 30 -9z m93 -30 c3 -11 1 -18
-4 -14 -5 3 -9 12 -9 20 0 20 7 17 13 -6z m-86 -9 c48 -1 53 -3 50 -22 -1 -12
4 -24 11 -26 7 -3 12 3 12 14 0 14 3 13 13 -7 8 -14 12 -27 9 -30 -3 -3 -7 0
-9 7 -9 24 -32 0 -38 -39 -7 -39 -8 -40 -40 -34 -41 8 -65 -1 -65 -24 0 -10
-9 -20 -20 -23 -15 -4 -20 -14 -21 -39 -2 -31 -2 -31 -6 -5 -3 18 2 36 13 48
13 15 15 25 9 37 -6 9 -9 47 -7 84 2 56 5 66 20 63 9 -2 41 -4 69 -4z m118
-47 c9 -15 12 -23 6 -20 -11 7 -35 46 -28 46 3 0 12 -12 22 -26z m-224 -74
c-6 -30 -9 -36 -10 -19 -1 33 12 99 16 79 2 -8 -1 -35 -6 -60z m272 -11 c-5
-18 -3 -20 18 -15 19 6 21 5 7 -4 -15 -9 -68 1 -68 14 0 3 7 3 15 0 14 -6 20
6 16 29 -1 5 3 6 8 3 5 -3 7 -16 4 -27z m-52 -42 c-6 -8 -9 -16 -6 -19 3 -2
-6 -14 -18 -27 -20 -18 -28 -20 -48 -11 -22 9 -22 10 -2 6 14 -2 29 4 40 17
17 20 17 20 -2 12 -11 -4 -30 -7 -42 -6 -13 0 -23 -4 -23 -11 0 -6 -3 -9 -6
-6 -3 4 -1 16 6 27 8 16 17 20 35 15 13 -3 32 -1 42 5 25 15 38 14 24 -2z
m-151 -21 c0 -3 -4 -8 -10 -11 -5 -3 -10 -1 -10 4 0 6 5 11 10 11 6 0 10 -2
10 -4z m-2577 -44 l77 3 0 -78 c0 -143 39 -273 109 -367 14 -19 53 -69 87
-111 33 -41 102 -136 152 -210 94 -140 175 -227 252 -272 25 -14 92 -38 150
-53 122 -31 218 -72 318 -138 88 -57 111 -66 170 -66 92 0 159 83 197 241 31
135 16 202 -75 324 -73 98 -85 123 -112 228 -31 124 -63 183 -143 263 -38 39
-83 80 -99 91 l-29 20 24 41 c13 23 26 41 29 39 3 -1 40 -20 83 -41 68 -35 89
-40 163 -44 74 -4 84 -7 78 -21 -19 -46 -25 -98 -15 -138 6 -23 42 -102 80
-175 39 -74 81 -173 96 -223 82 -280 151 -453 211 -524 78 -92 192 -81 312 32
31 30 62 52 69 50 7 -2 13 8 15 24 l3 28 6 -28 c5 -23 2 -31 -15 -38 -12 -6
-23 -20 -23 -32 -5 -57 -27 -170 -48 -239 -16 -53 -20 -78 -12 -78 9 0 9 -2 0
-8 -12 -8 -63 -114 -63 -132 0 -5 7 -7 15 -4 8 4 15 1 15 -6 0 -7 8 -10 20 -7
10 3 21 0 23 -7 3 -8 8 -8 16 0 9 9 19 9 37 0 22 -10 24 -17 24 -78 l0 -68
-69 0 -70 0 -3 33 -3 32 -23 -35 -23 -35 6 45 6 45 -17 -38 c-16 -36 -16 -41
0 -74 l16 -34 -27 3 c-24 3 -28 -1 -36 -32 -4 -19 -12 -53 -18 -75 -5 -22 -15
-76 -23 -121 -7 -44 -16 -86 -21 -93 -10 -17 -9 -470 2 -498 4 -12 7 90 5 228
-2 150 0 249 6 249 5 0 12 18 16 40 6 38 8 40 41 40 l35 0 2 73 2 72 3 -72 c3
-56 7 -73 18 -73 8 0 15 -6 15 -14 0 -8 6 -17 13 -20 10 -5 10 -7 0 -12 -18
-8 -16 -34 2 -34 8 0 15 8 15 17 0 14 4 12 25 -7 14 -13 25 -19 26 -14 0 5 5
-2 11 -16 l11 -25 8 25 c8 22 8 21 4 -7 -2 -18 1 -46 7 -63 8 -24 7 -34 -2
-43 -10 -9 -11 -9 -6 1 9 14 -10 69 -30 90 -18 17 -42 15 -47 -5 -3 -11 -5 -7
-6 10 -1 17 -7 27 -16 27 -24 0 -21 -125 3 -139 16 -9 16 -10 0 -16 -10 -4
-18 -18 -18 -31 0 -28 16 -32 23 -6 4 13 5 11 6 -5 1 -15 -5 -23 -15 -23 -15
0 -16 -15 -10 -154 7 -153 7 -154 -15 -161 -22 -7 -22 -8 -15 -158 5 -98 11
-155 19 -160 8 -6 5 -7 -6 -3 -10 3 -27 6 -37 6 -25 0 -31 22 -24 86 5 36 11
54 20 54 11 0 14 20 14 85 0 69 -3 85 -15 85 -10 0 -15 10 -15 28 -1 26 -1 26
-16 -8 -9 -22 -13 -48 -9 -70 3 -20 2 -55 -4 -80 -7 -32 -5 -79 10 -188 10
-79 19 -164 19 -187 0 -55 17 -68 23 -18 2 21 4 -29 4 -112 0 -82 -3 -132 -6
-110 -8 52 -17 36 -25 -45 -14 -120 -40 -197 -108 -314 -27 -45 -30 -86 -7
-86 13 0 11 18 -3 23 -7 2 -10 8 -6 12 15 16 38 -24 37 -67 -1 -24 -4 -33 -6
-22 -5 24 -30 51 -53 56 -11 2 -15 -7 -16 -32 -4 -89 -20 -120 -57 -113 -21 4
-23 1 -23 -33 0 -21 -5 -39 -12 -42 -14 -4 -16 -22 -2 -22 5 0 15 18 21 40 9
29 18 40 31 40 27 0 48 24 48 54 0 19 5 26 20 26 25 0 27 35 3 49 -10 6 -13
11 -7 11 16 0 34 -22 34 -42 0 -10 5 -18 10 -18 6 0 10 -32 10 -75 l0 -75 -67
0 c-38 0 -73 -4 -79 -8 -17 -11 -23 -39 -12 -50 6 -6 7 -16 3 -22 -11 -17 -25
7 -25 43 0 15 -5 27 -11 27 -6 0 -1 13 10 29 12 16 21 35 21 43 -1 16 -50 -42
-50 -59 0 -7 -4 -13 -8 -13 -16 0 -34 -52 -22 -64 5 -5 10 -17 9 -26 0 -10 -2
-11 -6 -2 -8 20 -22 14 -16 -8 3 -11 1 -20 -5 -20 -6 0 -12 -10 -14 -23 -3
-14 -7 -6 -12 26 -5 26 -13 47 -20 47 -6 0 -45 -32 -86 -70 -96 -90 -214 -164
-315 -197 -73 -24 -94 -27 -240 -27 -121 -1 -182 4 -252 18 l-92 20 26 49 c48
96 119 292 177 492 120 415 223 1098 233 1546 7 286 -4 418 -48 586 -74 288
-203 466 -465 638 -144 96 -237 186 -288 284 -21 40 -62 142 -91 227 -62 180
-97 244 -180 326 -58 57 -177 138 -204 138 -8 0 -11 6 -6 18 25 65 44 135 50
183 l7 56 61 -19 c45 -14 84 -18 140 -16z m2512 -137 c11 -42 -1 -28 -17 21
-8 23 -12 57 -9 80 5 39 5 39 11 -16 4 -30 10 -68 15 -85z m104 114 c-7 -4 -9
-15 -5 -25 6 -18 5 -18 -8 -1 -16 20 -26 22 -26 5 0 -7 -14 -29 -30 -48 l-30
-35 6 29 c5 21 4 27 -5 22 -7 -5 -11 1 -10 16 0 13 3 17 6 11 7 -18 23 -16 23
2 0 7 8 18 17 24 21 11 81 12 62 0z m41 7 c0 -2 -7 -9 -15 -16 -13 -11 -14
-10 -9 4 5 14 24 23 24 12z m-66 -74 c-6 -4 -30 -36 -54 -72 -24 -35 -45 -59
-48 -52 -2 7 6 23 18 35 12 12 35 42 52 65 16 24 32 41 36 37 4 -3 2 -9 -4
-13z m-109 -50 c-16 -12 -35 -50 -35 -72 0 -12 -4 -18 -10 -15 -15 9 -12 -17
4 -38 10 -13 15 -15 19 -5 2 7 6 11 9 8 2 -3 -3 -20 -12 -39 l-17 -35 -13 25
c-12 22 -12 23 3 10 20 -16 24 2 5 23 -10 10 -16 9 -30 -8 -16 -19 -17 -19
-11 -2 3 11 17 41 30 68 13 26 23 54 23 62 0 8 8 19 17 25 19 10 34 4 18 -7z
m15 -27 c0 -8 -4 -15 -10 -15 -5 0 -10 7 -10 15 0 8 5 15 10 15 6 0 10 -7 10
-15z m-20 -35 c0 -5 -4 -10 -10 -10 -5 0 -10 5 -10 10 0 6 5 10 10 10 6 0 10
-4 10 -10z m-60 -119 c0 -6 -4 -13 -10 -16 -5 -3 -10 -15 -10 -26 0 -10 -4
-19 -10 -19 -13 0 -13 10 3 43 12 26 27 36 27 18z m8 -64 c-8 -27 -14 -34 -21
-25 -5 8 -6 3 -3 -14 4 -16 2 -28 -4 -28 -18 0 -11 50 12 80 27 37 30 34 16
-13z m-82 -14 c-3 -10 -1 -25 4 -33 8 -12 10 -10 11 10 l1 25 8 -25 c4 -14 8
-34 8 -45 0 -15 -2 -14 -7 5 l-7 25 -8 -24 c-6 -16 -4 -26 5 -32 16 -9 3 -39
-20 -47 -10 -3 -10 1 1 18 10 18 10 24 1 27 -7 3 -13 11 -13 18 0 7 6 15 13
18 9 4 9 7 -1 18 -11 12 -14 12 -22 -1 -17 -27 -10 1 7 31 20 33 27 37 19 12z
m-38 -83 c-7 -10 -14 -18 -15 -16 -6 6 9 36 18 36 5 0 4 -9 -3 -20z m86 -22
c-4 -18 -11 -51 -15 -73 -6 -40 -6 -40 -8 -6 -1 32 18 111 26 111 3 0 1 -15
-3 -32z m-77 -100 l1 -93 -12 80 c-7 49 -8 85 -3 93 5 6 10 12 11 12 0 0 2
-42 3 -92z m-20 -55 c-3 -10 -5 -4 -5 12 0 17 2 24 5 18 2 -7 2 -21 0 -30z
m70 -45 c-2 -13 -4 -3 -4 22 0 25 2 35 4 23 2 -13 2 -33 0 -45z m-67 -68 c0
-45 -4 -70 -11 -70 -7 0 -9 12 -5 35 6 29 4 35 -11 35 -17 1 -17 1 0 14 9 7
17 23 17 35 0 11 2 21 5 21 3 0 5 -31 5 -70z m880 28 c0 -6 -6 -5 -15 2 -8 7
-15 14 -15 16 0 2 7 1 15 -2 8 -4 15 -11 15 -16z m70 -27 c0 -9 -5 -23 -11
-31 -9 -12 -10 -12 -5 4 4 12 -1 28 -16 43 l-23 25 28 -13 c15 -7 27 -19 27
-28z m-71 5 c5 -4 11 -1 13 6 2 6 10 8 16 4 17 -11 15 -22 -5 -22 -10 -1 -26
-5 -36 -9 -14 -6 -16 -4 -10 11 4 11 3 15 -5 10 -6 -3 -13 -2 -17 3 -6 10 27
7 44 -3z m-808 -58 l-9 -33 -1 41 c-1 22 2 44 7 48 12 12 14 -19 3 -56z m745
2 c-7 -18 -20 -34 -29 -36 -11 -1 -8 9 12 41 29 48 39 46 17 -5z m27 -26 c-4
-10 -9 -12 -15 -6 -12 12 -1 35 12 27 5 -3 6 -13 3 -21z m-756 -151 c-2 -32
-3 -6 -3 57 0 63 1 89 3 58 2 -32 2 -84 0 -115z m792 116 c1 7 7 11 15 8 9 -4
17 1 19 11 2 9 4 -11 3 -45 l-1 -63 -32 0 c-44 0 -134 -21 -158 -37 -11 -7
-26 -13 -35 -12 -9 0 -6 4 8 9 12 5 22 13 22 18 0 5 19 12 43 16 124 18 132
21 132 40 0 11 -6 21 -14 24 -10 3 -12 0 -8 -12 4 -10 1 -16 -7 -16 -8 0 -11
10 -8 30 4 26 1 30 -19 30 l-24 0 25 13 c22 12 26 11 32 -8 3 -11 6 -14 7 -6z
m-912 -31 c-2 -13 -4 -5 -4 17 -1 22 1 32 4 23 2 -10 2 -28 0 -40z m793 38 c0
-2 -8 -10 -17 -17 -16 -13 -17 -12 -4 4 13 16 21 21 21 13z m6 -31 c-8 -8 -18
-15 -22 -15 -3 0 -1 7 6 15 7 8 17 15 22 15 5 0 3 -7 -6 -15z m-709 -27 c-3
-8 -6 -5 -6 6 -1 11 2 17 5 13 3 -3 4 -12 1 -19z m650 -11 c-12 -13 -26 -21
-32 -18 -5 2 -1 -5 9 -17 22 -26 10 -29 -23 -6 l-23 16 30 18 c16 10 33 23 37
29 3 6 10 9 15 6 5 -3 -1 -16 -13 -28z m80 7 c-3 -3 -12 -4 -19 -1 -8 3 -5 6
6 6 11 1 17 -2 13 -5z m50 -10 c-3 -3 -12 -4 -19 -1 -8 3 -5 6 6 6 11 1 17 -2
13 -5z m-57 -14 c-8 -5 -19 -10 -25 -10 -5 0 -3 5 5 10 8 5 20 10 25 10 6 0 3
-5 -5 -10z m-803 -57 c13 -29 13 -34 -2 -55 l-16 -23 6 27 c10 38 -3 55 -22
28 -11 -16 -12 -24 -3 -35 6 -8 7 -16 2 -19 -6 -3 -12 3 -15 15 -6 24 16 83
27 72 4 -5 5 6 2 22 -3 17 -3 23 0 15 4 -8 13 -29 21 -47z m663 27 c8 -5 11
-10 5 -10 -5 0 -17 5 -25 10 -8 5 -10 10 -5 10 6 0 17 -5 25 -10z m-28 -19
c-5 -3 -12 -13 -15 -21 -3 -8 -5 -3 -4 11 1 18 6 25 15 21 7 -2 9 -8 4 -11z
m-69 -37 c-34 -26 -45 -51 -18 -40 8 3 15 1 15 -4 0 -6 5 -10 11 -10 5 0 7 5
3 12 -5 7 -3 8 6 3 10 -6 6 -15 -17 -34 -17 -14 -42 -39 -57 -56 -19 -21 -24
-24 -17 -9 6 12 25 34 42 48 38 32 32 46 -8 18 -25 -18 -83 -112 -83 -135 0
-5 -7 -15 -15 -23 -21 -21 -19 -11 10 44 13 26 29 58 35 72 27 62 90 140 113
140 6 0 -3 -12 -20 -26z m-513 -19 c0 -46 -14 -46 -17 0 -1 19 3 35 8 35 5 0
9 -16 9 -35z m600 11 c0 -2 -7 -7 -16 -10 -8 -3 -12 -2 -9 4 6 10 25 14 25 6z
m-554 -93 c-2 -26 -4 -65 -5 -86 -1 -21 -5 -36 -10 -33 -4 3 -5 23 -2 43 4 21
7 64 6 95 0 33 3 52 7 43 5 -7 6 -35 4 -62z m-29 -12 c0 -11 -5 -17 -9 -15
-11 7 -10 34 1 34 6 0 9 -9 8 -19z m-137 -21 c0 -11 -4 -20 -10 -20 -5 0 -10
9 -10 20 0 11 5 20 10 20 6 0 10 -9 10 -20z m-23 -62 c-3 -8 -6 -5 -6 6 -1 11
2 17 5 13 3 -3 4 -12 1 -19z m139 -35 c-10 -10 -19 5 -10 18 6 11 8 11 12 0 2
-7 1 -15 -2 -18z m22 -33 c-14 -22 -24 -19 -15 5 4 8 11 15 17 15 6 0 6 -7 -2
-20z m346 -6 c3 -8 2 -12 -4 -9 -6 3 -10 0 -10 -9 0 -17 -32 -76 -42 -76 -5 0
43 109 48 110 1 0 5 -7 8 -16z m-524 -58 c-7 -7 -10 1 -9 25 0 32 1 33 10 10
6 -16 6 -28 -1 -35z m40 19 c0 -14 -4 -25 -10 -25 -11 0 -14 33 -3 43 11 11
13 8 13 -18z m95 -55 c-2 -61 -8 -80 -20 -61 -3 6 -2 11 2 11 11 0 10 93 -1
101 -5 4 -5 12 -1 19 13 22 22 -8 20 -70z m-145 10 c0 -5 -4 -10 -10 -10 -5 0
-10 5 -10 10 0 6 5 10 10 10 6 0 10 -4 10 -10z m117 -12 c-3 -8 -6 -5 -6 6 -1
11 2 17 5 13 3 -3 4 -12 1 -19z m372 -24 c1 11 4 17 7 14 3 -3 1 -21 -5 -39
-6 -23 -10 -27 -11 -14 -1 16 -4 14 -15 -10 -12 -24 -14 -26 -15 -9 0 32 -11
36 -37 12 -27 -26 -30 -63 -5 -77 16 -10 16 -10 -1 -11 -15 0 -18 -7 -16 -37
1 -21 -3 -49 -9 -63 -7 -16 -11 -19 -11 -9 -1 9 -8 19 -16 23 -8 3 -15 11 -15
18 0 9 3 8 10 -2 5 -8 10 -10 10 -5 0 6 4 4 9 -4 6 -9 10 5 12 43 4 54 3 56
-21 56 -20 0 -22 -2 -10 -10 13 -8 13 -10 -2 -10 -21 0 -30 13 -22 34 5 12 10
13 25 5 13 -6 19 -6 19 1 0 5 -6 10 -12 10 -7 0 -1 7 12 17 14 9 37 27 53 41
23 22 27 23 27 8 0 -25 20 -9 21 17 0 21 1 21 9 2 8 -19 9 -19 9 -1z m-489
-29 c0 -8 -4 -15 -10 -15 -5 0 -7 7 -4 15 4 8 8 15 10 15 2 0 4 -7 4 -15z
m121 -33 c43 3 69 -3 69 -16 0 -7 10 -21 23 -30 20 -15 20 -16 2 -14 -26 4
-32 -51 -8 -69 14 -11 3 -13 -63 -13 l-79 0 -10 43 c-6 26 -7 56 -1 79 8 32
12 35 31 28 12 -5 28 -8 36 -8z m312 -3 c-4 -12 0 -25 8 -29 17 -11 5 -24 -16
-17 -18 7 -20 38 -3 55 16 16 17 15 11 -9z m-148 -30 c24 -1 25 -3 8 -6 -25
-5 -30 -18 -10 -26 6 -3 2 -6 -10 -6 -16 -1 -23 5 -23 18 0 12 -9 21 -25 25
-14 4 -25 11 -25 16 0 5 12 2 28 -6 15 -7 41 -15 57 -15z m186 0 c-5 -13 -10
-19 -10 -12 -1 15 10 45 15 40 3 -2 0 -15 -5 -28z m-441 17 c0 -3 -4 -8 -10
-11 -5 -3 -10 -1 -10 4 0 6 5 11 10 11 6 0 10 -2 10 -4z m-55 -40 c8 3 10 -4
7 -26 -2 -16 -6 -30 -8 -30 -5 0 -34 57 -34 67 0 4 5 2 11 -4 6 -6 17 -9 24
-7z m476 -37 c-9 -22 -10 -22 -10 -3 -1 11 2 24 6 27 12 12 14 0 4 -24z m-524
-11 c-3 -7 -5 -2 -5 12 0 14 2 19 5 13 2 -7 2 -19 0 -25z m373 -25 c-8 -3 -18
-10 -21 -15 -3 -5 -9 -3 -12 6 -5 12 0 16 21 15 16 0 21 -3 12 -6z m89 -89
c-18 -33 -36 -61 -39 -64 -4 -3 -15 -29 -25 -57 -10 -29 -20 -51 -22 -49 -8 7
28 115 42 126 8 6 11 19 8 27 -4 11 -2 14 5 9 7 -4 19 9 32 35 12 22 24 39 26
36 3 -3 -9 -31 -27 -63z m-63 -30 c-4 -9 -9 -15 -11 -12 -3 3 -3 13 1 22 4 9
9 15 11 12 3 -3 3 -13 -1 -22z m-26 -66 c0 -36 -4 -35 -14 5 -4 16 -2 27 4 27
5 0 10 -14 10 -32z m-430 -130 c0 -4 -4 -8 -10 -8 -5 0 -10 7 -10 15 0 25 -27
17 -34 -10 -4 -14 -10 -25 -15 -25 -13 0 -1 40 18 60 15 15 17 15 34 -3 9 -11
17 -24 17 -29z m430 35 c0 -5 -5 -15 -10 -23 -8 -12 -10 -11 -10 8 0 12 5 22
10 22 6 0 10 -3 10 -7z m-24 -90 c-11 -11 -17 4 -9 23 7 18 8 18 11 1 2 -10 1
-21 -2 -24z m-45 4 c-1 -4 -1 -14 -1 -22 0 -8 -4 -15 -10 -15 -5 0 -10 12 -10
26 0 14 5 24 11 22 6 -2 10 -7 10 -11z m-444 -39 c-3 -8 -6 -5 -6 6 -1 11 2
17 5 13 3 -3 4 -12 1 -19z m465 -6 c-6 -2 -9 -17 -6 -35 3 -18 1 -59 -5 -92
-9 -56 -9 -54 -6 37 3 94 13 139 23 108 3 -8 0 -16 -6 -18z m-35 -24 c-3 -8
-6 -5 -6 6 -1 11 2 17 5 13 3 -3 4 -12 1 -19z m9 -146 c1 -78 -1 -96 -7 -67
-13 64 -10 176 5 175 0 0 1 -48 2 -108z m-42 83 c-4 -8 -10 -15 -14 -15 -5 0
-16 -7 -24 -16 -15 -14 -16 -14 -16 5 0 20 23 40 47 41 7 0 10 -7 7 -15z
m-147 -41 c-3 -3 -12 -4 -19 -1 -8 3 -5 6 6 6 11 1 17 -2 13 -5z m-7 -69 c-17
-33 -20 -35 -20 -15 0 21 28 65 36 57 2 -2 -5 -21 -16 -42z m90 24 c0 -5 -7
-9 -15 -9 -12 0 -15 -14 -17 -62 l-2 -63 -3 60 c-2 32 -8 64 -13 70 -5 6 2 10
21 11 16 1 29 -3 29 -7z m0 -39 c0 -5 -2 -10 -4 -10 -3 0 -8 5 -11 10 -3 6 -1
10 4 10 6 0 11 -4 11 -10z m-168 -27 c-5 -10 -12 -25 -15 -33 -3 -8 -4 -1 -2
15 4 38 3 35 15 35 7 0 7 -6 2 -17z m177 -31 c0 -24 -1 -25 -9 -7 -12 28 -12
47 0 40 6 -3 10 -18 9 -33z m90 -151 c1 -74 -1 -132 -4 -129 -3 3 -6 73 -8
157 -1 84 1 142 5 129 3 -13 6 -83 7 -157z m-242 127 c-3 -8 -6 -5 -6 6 -1 11
2 17 5 13 3 -3 4 -12 1 -19z m130 -75 c-2 -16 -4 -5 -4 22 0 28 2 40 4 28 2
-13 2 -35 0 -50z m-126 -81 c-18 -156 -20 -163 -14 -52 4 58 7 122 7 143 0 27
2 33 9 21 5 -9 5 -54 -2 -112z m-12 65 c1 -5 -3 -5 -9 -2 -5 3 -10 16 -9 28 0
21 1 21 9 2 5 -11 9 -24 9 -28z m111 -42 l-7 -60 -2 70 c0 42 3 65 8 60 5 -6
6 -36 1 -70z m-133 -7 c-3 -7 -5 -2 -5 12 0 14 2 19 5 13 2 -7 2 -19 0 -25z
m150 -20 c-2 -13 -4 -5 -4 17 -1 22 1 32 4 23 2 -10 2 -28 0 -40z m-160 -65
c-2 -16 -4 -5 -4 22 0 28 2 40 4 28 2 -13 2 -35 0 -50z m140 -125 c-2 -18 -4
-6 -4 27 0 33 2 48 4 33 2 -15 2 -42 0 -60z m20 30 c-2 -13 -4 -5 -4 17 -1 22
1 32 4 23 2 -10 2 -28 0 -40z m20 -5 c-3 -10 -5 -2 -5 17 0 19 2 27 5 18 2
-10 2 -26 0 -35z m60 -50 c-2 -21 -4 -6 -4 32 0 39 2 55 4 38 2 -18 2 -50 0
-70z m52 4 c0 -21 -1 -21 -9 -2 -12 28 -12 37 0 30 6 -3 10 -16 9 -28z m-8
-80 c-6 -6 -11 -20 -11 -31 -1 -20 -1 -20 -11 -2 -7 12 -8 21 -2 25 6 3 14 17
19 31 7 21 8 22 12 6 2 -10 -1 -23 -7 -29z m-131 -21 c0 -39 -6 -30 -13 19 -4
27 -3 35 3 25 5 -8 10 -28 10 -44z m17 32 c-3 -8 -6 -5 -6 6 -1 11 2 17 5 13
3 -3 4 -12 1 -19z m147 -168 c4 -25 3 -31 -4 -20 -5 8 -10 33 -11 55 -1 36 -2
34 -11 -19 -6 -36 -6 -61 0 -65 5 -3 12 -24 15 -46 6 -37 6 -38 -4 -10 -6 17
-17 44 -25 62 -16 35 -18 57 -5 49 5 -3 12 27 16 67 l8 72 8 -55 c5 -30 11
-71 13 -90z m-127 63 c-2 -16 -4 -5 -4 22 0 28 2 40 4 28 2 -13 2 -35 0 -50z
m-325 -53 c-9 -44 -9 -45 -17 -16 -6 20 -4 31 3 34 7 2 13 22 14 45 1 32 2 35
5 12 2 -16 -1 -50 -5 -75z m285 33 c-3 -10 -5 -4 -5 12 0 17 2 24 5 18 2 -7 2
-21 0 -30z m120 5 c-3 -8 -6 -5 -6 6 -1 11 2 17 5 13 3 -3 4 -12 1 -19z m-232
-207 c-3 -2 -5 13 -6 35 -1 35 -2 37 -10 14 -7 -21 -8 -20 -4 9 3 18 6 63 6
100 2 55 3 48 10 -43 5 -61 6 -112 4 -115z m129 145 c-3 -21 -8 -35 -11 -32
-2 2 -1 20 3 40 3 21 8 35 11 32 2 -2 1 -20 -3 -40z m46 -22 c0 -8 -4 -13 -9
-9 -5 3 -13 0 -17 -6 -3 -6 0 -15 7 -20 7 -4 10 -11 6 -15 -14 -14 -28 13 -21
40 7 28 34 36 34 10z m47 -26 c-3 -8 -6 -5 -6 6 -1 11 2 17 5 13 3 -3 4 -12 1
-19z m76 -32 c4 -22 3 -35 -2 -30 -12 13 -22 60 -14 68 9 8 9 7 16 -38z m-56
-23 c-3 -10 -5 -2 -5 17 0 19 2 27 5 18 2 -10 2 -26 0 -35z m-104 -14 c5 -4 6
-13 2 -20 -6 -9 -10 -8 -16 7 -4 10 -8 26 -8 34 1 13 1 13 6 0 3 -8 10 -18 16
-21z m54 -46 c-3 -10 -5 -2 -5 17 0 19 2 27 5 18 2 -10 2 -26 0 -35z m-240
-15 c-3 -7 -5 -2 -5 12 0 14 2 19 5 13 2 -7 2 -19 0 -25z m315 -9 c15 -9 2
-25 -23 -32 -16 -4 -19 -3 -10 6 6 6 12 25 12 42 1 21 3 24 6 10 3 -11 10 -23
15 -26z m53 -54 c3 -75 2 -85 -10 -69 -9 13 -10 24 -4 36 5 9 6 43 3 75 -4 32
-4 55 0 51 4 -3 9 -45 11 -93z m-418 -2 c-2 -16 -4 -3 -4 27 0 30 2 43 4 28 2
-16 2 -40 0 -55z m88 57 c-3 -5 -10 -10 -16 -10 -5 0 -9 5 -9 10 0 6 7 10 16
10 8 0 12 -4 9 -10z m16 -31 c-6 -16 -10 -18 -10 -7 -1 22 12 55 16 42 2 -6
-1 -22 -6 -35z m-14 -81 c-3 -7 -5 -2 -5 12 0 14 2 19 5 13 2 -7 2 -19 0 -25z
m173 23 c0 -6 -4 -13 -10 -16 -5 -3 -10 1 -10 9 0 9 5 16 10 16 6 0 10 -4 10
-9z m-243 -33 c-3 -7 -5 -2 -5 12 0 14 2 19 5 13 2 -7 2 -19 0 -25z m437 -33
c8 -33 25 -88 37 -123 22 -67 20 -104 -5 -80 -9 8 -11 20 -6 34 9 23 2 74 -10
74 -7 0 -40 126 -40 153 0 22 10 -2 24 -58z m-324 34 c0 -5 -4 -9 -10 -9 -5 0
-10 7 -10 16 0 8 5 12 10 9 6 -3 10 -10 10 -16z m208 -6 c-10 -2 -18 -9 -18
-14 0 -6 4 -8 9 -5 5 3 11 -7 13 -24 2 -16 1 -27 -4 -24 -4 3 -8 11 -8 19 0 7
-5 15 -12 17 -18 6 -1 38 19 37 17 -1 17 -2 1 -6z m-228 -42 c0 -11 -4 -23
-10 -26 -6 -4 -10 5 -10 19 0 14 5 26 10 26 6 0 10 -9 10 -19z m50 -78 c0 -2
-4 -3 -10 -3 -5 0 -11 10 -11 23 l-2 22 -4 -22 c-2 -13 -9 -23 -14 -23 -12 0
-12 27 1 35 6 3 10 21 11 38 0 28 2 26 14 -18 8 -27 14 -51 15 -52z m108 66
c-3 -8 -7 -3 -11 10 -4 17 -3 21 5 13 5 -5 8 -16 6 -23z m171 -46 c0 -13 -4
-23 -10 -23 -6 0 -8 8 -4 20 3 10 2 27 -3 37 -5 10 -7 25 -4 33 6 16 19 -25
21 -67z m-449 -18 c0 -43 -4 -75 -10 -75 -6 0 -10 32 -10 75 0 43 4 75 10 75
6 0 10 -32 10 -75z m332 -2 c7 -9 7 -13 0 -13 -14 0 -22 26 -20 63 l1 32 4
-35 c3 -19 9 -41 15 -47z m85 5 c-3 -7 -5 -2 -5 12 0 14 2 19 5 13 2 -7 2 -19
0 -25z m-307 6 c0 -8 -5 -12 -10 -9 -6 4 -8 11 -5 16 9 14 15 11 15 -7z m195
-13 c3 -5 1 -12 -5 -16 -5 -3 -10 1 -10 9 0 18 6 21 15 7z m17 -46 c3 -13 1
-22 -3 -19 -9 5 -13 44 -5 44 2 0 6 -11 8 -25z m-137 -55 c-4 -17 -9 -29 -12
-26 -3 2 -2 19 2 36 4 17 9 29 12 26 3 -2 2 -19 -2 -36z m342 -82 c1 -63 -7
-59 -22 11 -5 23 -4 31 4 27 6 -4 11 0 11 8 0 9 1 16 3 16 1 0 3 -28 4 -62z
m-317 37 c0 -8 -7 -15 -15 -15 -26 0 -18 20 13 29 1 1 2 -6 2 -14z m-220 -96
c0 -46 4 -79 10 -79 6 0 10 -32 10 -75 l0 -75 -81 0 c-79 0 -80 0 -74 -22 7
-22 7 -22 -8 -4 -13 18 -12 22 4 40 11 11 19 28 19 38 0 10 4 18 9 18 5 0 15
20 22 45 7 25 17 45 22 45 5 0 6 -8 3 -17 -6 -23 -15 -72 -9 -55 3 6 8 12 12
12 5 0 9 44 9 97 0 80 3 99 18 110 28 20 34 6 34 -78z m17 -36 c-2 -21 -4 -4
-4 37 0 41 2 58 4 38 2 -21 2 -55 0 -75z m209 64 c0 -23 -1 -34 -3 -24 -3 9
-8 15 -12 13 -4 -3 -5 8 -3 25 6 43 17 35 18 -14z m357 -23 c4 -4 7 -12 7 -18
0 -6 -9 3 -20 19 -11 17 -20 39 -19 50 0 14 4 11 12 -12 7 -17 15 -35 20 -39z
m-396 24 c-3 -7 -5 -2 -5 12 0 14 2 19 5 13 2 -7 2 -19 0 -25z m163 22 c0 -5
-4 -10 -10 -10 -5 0 -10 5 -10 10 0 6 5 10 10 10 6 0 10 -4 10 -10z m160 -18
c0 -10 -6 -19 -14 -19 -11 0 -12 4 -3 19 7 10 13 18 14 18 2 0 3 -8 3 -18z
m-120 -37 c0 -8 -4 -15 -10 -15 -5 0 -10 7 -10 15 0 8 5 15 10 15 6 0 10 -7
10 -15z m17 -17 c-3 -7 -5 -2 -5 12 0 14 2 19 5 13 2 -7 2 -19 0 -25z m-142
-15 c3 -15 15 -47 27 -71 25 -55 28 -93 8 -100 -13 -4 -13 -3 -2 11 12 14 11
20 -2 39 -9 12 -17 32 -17 43 -1 17 -2 17 -6 3 -2 -10 -9 -18 -15 -18 -5 0 -8
6 -5 13 3 7 -4 19 -14 25 -10 7 -19 19 -19 27 0 8 -4 15 -10 15 -5 0 -10 7
-10 15 0 21 9 19 30 -7 10 -13 22 -20 26 -15 4 4 2 13 -4 19 -14 14 -16 28 -3
28 5 0 12 -12 16 -27z m195 -4 c0 -11 -4 -18 -10 -14 -5 3 -7 12 -3 20 7 21
13 19 13 -6z m142 -7 c3 -11 -1 -30 -9 -43 -10 -17 -12 -18 -7 -4 4 11 6 30 5
43 -1 27 5 29 11 4z m-192 -86 c6 -37 8 -72 4 -78 -4 -5 0 -15 7 -20 12 -8 11
-9 -1 -5 -9 2 -15 16 -16 33 -1 85 -5 109 -14 89 -5 -11 -9 -17 -9 -13 -1 3
-4 14 -8 24 -5 12 -3 15 6 9 10 -6 12 0 7 26 -5 25 -4 30 3 18 6 -8 15 -46 21
-83z m116 26 c-12 -12 -18 8 -10 35 l8 28 4 -28 c2 -16 1 -31 -2 -35z m-102
33 c3 -8 1 -15 -4 -15 -6 0 -10 7 -10 15 0 8 2 15 4 15 2 0 6 -7 10 -15z m206
-37 c11 -23 11 -23 -6 -3 -16 19 -16 19 -10 -8 6 -24 5 -27 -8 -15 -10 9 -11
18 -5 31 12 22 16 22 29 -5z m-123 -60 c-3 -8 -6 -5 -6 6 -1 11 2 17 5 13 3
-3 4 -12 1 -19z m-217 -2 c0 -18 -28 -41 -38 -31 -4 4 -1 10 6 12 6 3 12 11
12 19 0 8 5 14 10 14 6 0 10 -6 10 -14z m236 -53 c-3 -4 -16 -1 -28 6 l-23 12
23 -5 c17 -3 22 1 23 17 2 21 2 21 6 -1 3 -13 2 -26 -1 -29z m88 20 c9 4 16 2
16 -4 0 -5 -7 -12 -16 -16 -15 -6 -34 11 -34 32 0 6 4 4 9 -4 5 -8 16 -11 25
-8z m62 -5 c4 -13 7 -31 5 -42 -1 -10 2 -15 7 -12 6 3 13 -2 16 -11 4 -10 4
-14 0 -10 -8 8 -33 -22 -34 -40 0 -7 7 -13 15 -13 8 0 15 -4 15 -9 0 -5 7 -17
16 -25 13 -14 14 -16 0 -16 -8 0 -18 5 -21 10 -5 8 -12 7 -22 -2 -14 -11 -15
-10 -9 9 4 12 2 31 -3 42 -8 15 -7 20 5 25 18 7 11 55 -9 68 -9 5 -8 8 3 8 11
0 11 3 2 12 -14 14 -16 28 -3 28 5 0 13 -10 17 -22z m-333 -1 c3 -8 -3 -14
-15 -14 -16 -2 -17 1 -8 13 15 17 17 17 23 1z m29 -81 c-6 -10 -20 20 -21 44
0 8 6 4 13 -10 8 -14 12 -29 8 -34z m-25 -8 c-3 -8 -6 -5 -6 6 -1 11 2 17 5
13 3 -3 4 -12 1 -19z m368 -7 c-3 -5 -1 -12 5 -16 6 -4 23 -30 38 -58 34 -66
38 -77 18 -52 -14 18 -15 18 -16 3 0 -19 -19 -25 -21 -8 -1 6 -2 16 -3 23 -1
6 2 17 6 24 6 7 -2 23 -22 43 -25 25 -29 35 -18 41 17 11 20 11 13 0z m-325
-36 c-7 -8 -16 -12 -21 -9 -13 8 -1 24 18 24 13 0 13 -3 3 -15z m97 -17 c-3
-7 -5 -2 -5 12 0 14 2 19 5 13 2 -7 2 -19 0 -25z m20 -10 c-3 -8 -6 -5 -6 6
-1 11 2 17 5 13 3 -3 4 -12 1 -19z m-417 -38 c0 -11 -4 -20 -9 -20 -11 0 -22
26 -14 34 12 12 23 5 23 -14z m589 -32 c0 -18 3 -48 7 -65 5 -26 3 -33 -9 -33
-12 0 -15 8 -12 32 2 18 -1 36 -8 41 -9 7 -9 10 1 14 6 2 12 13 12 24 0 10 2
19 5 19 3 0 5 -15 4 -32z m-574 -38 c3 -5 1 -10 -4 -10 -6 0 -11 5 -11 10 0 6
2 10 4 10 3 0 8 -4 11 -10z m66 -69 c-6 -11 -8 -28 -4 -38 4 -10 -5 -5 -19 12
-15 17 -24 32 -21 35 3 3 8 -1 10 -7 9 -24 22 -13 30 25 5 27 8 31 11 15 2
-12 -2 -31 -7 -42z m659 38 c0 -6 -4 -7 -10 -4 -5 3 -10 11 -10 16 0 6 5 7 10
4 6 -3 10 -11 10 -16z m-803 -26 c-3 -10 -5 -4 -5 12 0 17 2 24 5 18 2 -7 2
-21 0 -30z m824 -10 c13 -16 12 -17 -3 -5 -9 8 -22 11 -28 7 -5 -3 -10 -1 -10
4 0 17 26 13 41 -6z m-27 -38 c-4 -8 -8 -15 -10 -15 -2 0 -4 7 -4 15 0 8 4 15
10 15 5 0 7 -7 4 -15z m49 -45 c-2 -2 -8 2 -14 10 -8 13 -10 13 -19 0 -13 -20
-13 -4 1 22 11 20 11 20 23 -3 7 -13 11 -26 9 -29z m-573 25 c0 -10 -10 -15
-31 -15 -26 0 -29 -3 -20 -14 9 -11 9 -15 -1 -19 -10 -4 -10 -8 2 -16 8 -6 10
-11 4 -11 -6 0 -17 7 -24 15 -9 10 -9 15 -1 15 6 0 11 5 11 11 0 6 -7 9 -15 5
-8 -3 -15 -1 -15 4 0 4 14 11 30 15 17 4 30 11 30 16 0 5 7 9 15 9 8 0 15 -7
15 -15z m-273 -37 c-3 -7 -5 -2 -5 12 0 14 2 19 5 13 2 -7 2 -19 0 -25z m913
-37 c0 -3 -5 -13 -10 -21 -8 -13 -11 -12 -24 5 -9 11 -16 31 -16 44 l0 24 25
-23 c14 -13 25 -26 25 -29z m-1243 2 c-3 -10 -5 -4 -5 12 0 17 2 24 5 18 2 -7
2 -21 0 -30z m350 -5 c-3 -8 -6 -5 -6 6 -1 11 2 17 5 13 3 -3 4 -12 1 -19z
m43 -22 c0 -12 -5 -7 -19 24 -11 24 -11 24 3 6 9 -11 16 -24 16 -30z m-470 13
c-7 -11 -14 -18 -17 -15 -3 3 0 12 7 21 18 21 23 19 10 -6z m437 -31 c-3 -8
-6 -5 -6 6 -1 11 2 17 5 13 3 -3 4 -12 1 -19z m293 8 c21 -8 27 -15 18 -18 -8
-3 -22 0 -32 7 -10 8 -25 11 -34 8 -15 -4 -15 -3 -2 6 18 13 12 13 50 -3z m63
7 c-7 -2 -19 -2 -25 0 -7 3 -2 5 12 5 14 0 19 -2 13 -5z m7 -33 c0 -5 -2 -10
-4 -10 -3 0 -8 5 -11 10 -3 6 -1 10 4 10 6 0 11 -4 11 -10z m-304 -20 c0 -11
-4 -20 -8 -20 -10 0 -11 24 -1 33 9 9 9 10 9 -13z m-574 -20 c-2 -16 -8 -30
-13 -30 -11 0 -11 3 1 34 13 34 18 33 12 -4z m848 20 c13 -8 13 -10 -2 -10 -9
0 -20 5 -23 10 -8 13 5 13 25 0z m614 -6 c3 -8 2 -12 -4 -9 -6 3 -10 1 -10 -4
0 -6 -10 -11 -22 -11 l-21 0 23 20 c28 24 26 24 34 4z m-1331 -21 c-7 -2 -21
-2 -30 0 -10 3 -4 5 12 5 17 0 24 -2 18 -5z m792 -3 c-4 -7 9 -9 37 -5 41 4
42 4 8 -5 -38 -10 -83 -3 -74 11 3 5 12 9 20 9 8 0 12 -5 9 -10z m174 -6 c10
-9 -55 -3 -69 6 -10 6 -2 7 25 3 22 -3 42 -7 44 -9z m68 10 c-3 -3 -12 -4 -19
-1 -8 3 -5 6 6 6 11 1 17 -2 13 -5z m103 -6 c0 -4 -17 -8 -37 -8 -23 0 -33 4
-26 8 17 10 63 10 63 0z m-1219 -7 c-11 -7 -10 -11 7 -20 11 -6 29 -11 39 -11
10 0 27 -8 38 -16 23 -18 15 -17 -67 10 -60 20 -71 31 -40 39 29 8 38 7 23 -2z
m610 -34 c22 -20 36 -37 30 -37 -6 0 -24 15 -40 32 -16 18 -33 29 -38 25 -4
-5 4 -19 20 -31 33 -27 34 -36 2 -36 -18 0 -23 4 -19 15 4 8 2 15 -4 15 -5 0
-13 10 -17 23 -6 19 -8 19 -12 5 -5 -19 -23 -25 -23 -8 0 18 23 36 42 35 9 -1
36 -18 59 -38z m834 33 c3 -5 1 -10 -4 -10 -6 0 -11 5 -11 10 0 6 2 10 4 10 3
0 8 -4 11 -10z m-1387 -6 c12 -4 22 -10 22 -16 0 -5 -8 -4 -19 1 -10 6 -21 8
-24 5 -3 -3 -8 -1 -12 5 -7 12 0 13 33 5z m1059 0 c-3 -3 -12 -4 -19 -1 -8 3
-5 6 6 6 11 1 17 -2 13 -5z m183 -3 c0 -5 10 -12 23 -14 12 -2 -5 -4 -38 -4
-33 -1 -73 3 -90 8 -21 6 -13 7 28 3 37 -4 57 -2 57 5 0 6 5 11 10 11 6 0 10
-4 10 -9z m95 -1 c13 -5 14 -9 5 -9 -8 0 -24 4 -35 9 -13 5 -14 9 -5 9 8 0 24
-4 35 -9z m-442 -7 c-7 -2 -21 -2 -30 0 -10 3 -4 5 12 5 17 0 24 -2 18 -5z
m110 0 c-7 -2 -21 -2 -30 0 -10 3 -4 5 12 5 17 0 24 -2 18 -5z m-943 -19 c0
-8 -5 -12 -10 -9 -6 4 -8 11 -5 16 9 14 15 11 15 -7z m1035 6 c22 -5 9 -8 -45
-8 -54 0 -67 3 -45 8 17 4 37 8 45 8 8 0 29 -4 45 -8z m-610 -30 c3 -5 1 -10
-4 -10 -6 0 -11 5 -11 10 0 6 2 10 4 10 3 0 8 -4 11 -10z m-408 -6 c-3 -3 -12
-4 -19 -1 -8 3 -5 6 6 6 11 1 17 -2 13 -5z m133 -13 c72 -11 193 -11 205 -1
10 8 25 9 42 4 26 -7 25 -8 -17 -15 -59 -10 -203 -10 -260 0 -25 5 -37 9 -27
10 9 0 17 6 17 12 0 8 4 8 13 2 6 -6 19 -11 27 -12z m185 9 c-11 -5 -31 -8
-45 -8 l-25 0 25 8 c14 4 34 8 45 8 l20 1 -20 -9z m-278 -6 c-3 -3 -12 -4 -19
-1 -8 3 -5 6 6 6 11 1 17 -2 13 -5z"/>
<path d="M4885 8676 c-131 -43 -237 -113 -313 -208 -100 -126 -145 -254 -145
-413 -1 -119 13 -185 60 -284 70 -148 231 -264 416 -299 71 -13 86 -19 81 -32
-13 -32 -16 -168 -5 -219 29 -134 117 -253 227 -309 73 -37 106 -44 198 -44
124 1 233 48 314 136 77 84 85 142 9 69 -95 -91 -192 -128 -321 -121 -129 7
-217 62 -278 175 -64 118 -62 237 8 369 24 46 41 84 37 85 -5 0 -57 0 -118 -1
-172 -1 -273 34 -379 130 -187 172 -192 515 -9 732 85 101 205 179 343 223 80
26 83 35 10 35 -39 -1 -93 -10 -135 -24z"/>
<path d="M3733 8399 c-224 -37 -415 -217 -467 -439 -17 -71 -21 -176 -7 -184
4 -3 18 33 31 81 36 136 90 234 179 323 112 112 242 170 414 187 43 4 66 10
64 17 -8 23 -118 31 -214 15z"/>
<path d="M6145 7830 c-128 -20 -306 -91 -351 -141 -23 -26 -9 -24 86 11 137
50 212 64 355 64 113 0 142 -4 220 -28 196 -59 344 -166 481 -346 59 -78 72
-61 23 30 -71 134 -210 265 -355 336 -135 65 -321 95 -459 74z"/>
<path d="M2514 7170 c-93 -30 -152 -67 -225 -139 -77 -77 -125 -166 -141 -263
l-12 -65 -58 -18 c-119 -35 -232 -134 -293 -255 -101 -200 -61 -428 102 -580
109 -102 220 -146 353 -138 66 4 92 11 152 41 71 35 179 129 165 143 -3 4 -28
-7 -54 -24 -109 -70 -214 -97 -316 -81 -77 12 -137 42 -199 98 -181 162 -197
405 -38 574 58 62 107 91 223 132 59 21 72 41 86 133 22 141 112 261 244 323
65 31 81 34 163 34 84 0 95 -3 166 -38 129 -64 217 -177 254 -329 9 -38 21
-68 25 -68 5 0 9 33 9 73 0 176 -111 341 -286 424 -66 31 -87 36 -167 40 -72
2 -105 -1 -153 -17z"/>
<path d="M7569 6751 c-66 -21 -139 -69 -173 -114 -42 -55 -72 -147 -48 -147 5
0 23 20 41 45 66 92 158 137 281 136 88 0 144 -17 217 -67 91 -62 140 -160
150 -299 l6 -82 58 -6 c145 -13 239 -130 227 -281 -9 -109 -67 -194 -179 -267
-59 -37 -53 -52 13 -38 70 15 161 78 202 141 135 206 48 476 -176 548 -32 10
-38 16 -38 40 0 49 -38 154 -78 216 -38 58 -101 113 -172 149 -91 47 -232 58
-331 26z"/>
<path d="M4420 6627 c-199 -57 -329 -226 -330 -429 0 -69 -11 -79 -110 -102
-251 -58 -448 -251 -496 -486 -22 -108 -9 -203 37 -291 35 -65 54 -77 45 -26
-3 17 -8 70 -12 117 -12 162 32 277 155 401 87 87 189 145 306 173 139 34 185
81 185 191 1 230 140 382 373 406 50 5 92 11 95 13 2 3 -11 12 -28 21 -42 22
-163 28 -220 12z"/>
<path d="M6111 6543 c-84 -287 -271 -479 -526 -539 -92 -21 -298 -14 -402 14
-40 11 -73 16 -73 10 0 -14 115 -65 190 -84 86 -22 244 -22 330 0 231 60 414
234 486 461 27 86 44 215 27 215 -5 0 -20 -35 -32 -77z"/>
<path d="M6764 6044 c-22 -75 -15 -197 15 -276 88 -229 311 -359 548 -318 85
14 177 56 217 99 32 33 22 40 -22 17 -69 -36 -168 -60 -247 -60 -273 0 -472
204 -480 492 -1 51 -5 95 -8 98 -3 4 -13 -20 -23 -52z"/>
<path d="M1550 4941 c-69 -43 -172 -160 -213 -243 -107 -211 -102 -462 12
-661 87 -151 249 -269 431 -313 59 -15 200 -19 184 -6 -5 4 -53 19 -106 32
-205 49 -371 176 -462 350 -90 174 -88 407 5 591 45 91 80 139 155 214 70 69
67 82 -6 36z"/>
<path d="M3730 3279 c0 -6 22 -62 49 -124 87 -200 129 -351 152 -555 6 -58 16
-113 21 -123 31 -59 64 92 55 249 -12 183 -91 387 -198 507 -47 53 -79 72 -79
46z"/>
<path d="M4806 3053 c-3 -10 -9 -25 -13 -33 -5 -12 -4 -13 9 -3 8 7 18 10 21
6 4 -3 7 6 7 20 0 30 -14 36 -24 10z"/>
<path d="M4712 2545 c0 -16 2 -22 5 -12 2 9 2 23 0 30 -3 6 -5 -1 -5 -18z"/>
<path d="M4700 2013 c0 -28 -3 -34 -10 -23 -12 19 -13 -9 -3 -90 6 -48 7 -51
14 -27 4 15 3 42 -2 59 -6 21 -5 34 1 38 16 10 25 80 11 80 -6 0 -11 -16 -11
-37z"/>
<path d="M4548 728 c-35 -54 -40 -68 -23 -68 9 0 18 8 21 18 3 9 11 27 17 39
14 31 3 39 -15 11z"/>
<path d="M4371 444 c0 -11 3 -14 6 -6 3 7 2 16 -1 19 -3 4 -6 -2 -5 -13z"/>
<path d="M5301 1244 c0 -11 3 -14 6 -6 3 7 2 16 -1 19 -3 4 -6 -2 -5 -13z"/>
<path d="M5040 1010 c0 -5 5 -10 10 -10 6 0 10 5 10 10 0 6 -4 10 -10 10 -5 0
-10 -4 -10 -10z"/>
<path d="M5535 680 c3 -5 8 -10 11 -10 2 0 4 5 4 10 0 6 -5 10 -11 10 -5 0 -7
-4 -4 -10z"/>
<path d="M5697 414 c6 -15 23 -19 23 -5 0 5 -7 11 -14 14 -10 4 -13 1 -9 -9z"/>
</g>
</svg>
