<?xml version="1.0" standalone="no"?>
<!DOCTYPE svg PUBLIC "-//W3C//DTD SVG 20010904//EN"
 "http://www.w3.org/TR/2001/REC-SVG-20010904/DTD/svg10.dtd">
<svg version="1.0" xmlns="http://www.w3.org/2000/svg"
 width="760.000000pt" height="278.000000pt" viewBox="0 0 760.000000 278.000000"
 preserveAspectRatio="xMidYMid meet">

<g transform="translate(0.000000,278.000000) scale(0.100000,-0.100000)"
fill="#000000" stroke="none">
<path d="M1457 1826 c-118 -60 -176 -140 -227 -311 -14 -47 -9 -281 7 -337 35
-121 114 -228 203 -273 63 -32 94 -35 98 -10 2 15 -8 25 -39 40 -72 34 -142
130 -170 235 -18 63 -17 311 0 380 26 104 95 201 174 241 25 13 37 26 35 37
-5 25 -28 25 -81 -2z"/>
<path d="M4107 1843 c-16 -15 -5 -39 25 -52 38 -17 118 -95 134 -131 50 -111
59 -160 59 -305 -1 -108 -4 -142 -24 -200 -39 -121 -87 -184 -169 -223 -24
-12 -32 -22 -30 -37 10 -67 199 62 256 175 34 69 62 194 62 280 0 256 -105
436 -287 494 -11 3 -22 3 -26 -1z"/>
<path d="M735 1750 c-11 -5 -32 -9 -46 -9 -15 -1 -49 -11 -78 -22 l-51 -22 0
-58 0 -59 48 0 c46 0 49 2 61 35 13 37 67 85 95 85 55 0 105 -85 87 -148 -20
-69 -52 -96 -141 -119 -28 -7 -35 -14 -35 -33 0 -22 5 -26 54 -32 89 -13 141
-68 141 -149 0 -76 -63 -136 -129 -123 -36 8 -79 47 -83 77 -3 19 -9 22 -53
22 l-50 0 0 -60 c0 -56 2 -61 29 -73 40 -20 161 -34 226 -27 67 7 105 21 148
52 47 35 62 72 62 150 0 85 -20 122 -84 153 -26 12 -46 26 -44 30 2 4 23 23
48 42 57 43 70 69 70 142 0 52 -3 61 -33 91 -51 51 -182 81 -242 55z"/>
<path d="M3625 1745 c-56 -13 -78 -20 -115 -38 -22 -11 -25 -20 -28 -70 l-3
-57 51 0 c46 0 51 2 60 28 17 45 25 56 63 77 32 17 38 18 63 5 46 -25 66 -67
60 -127 -6 -67 -40 -130 -128 -235 -98 -116 -168 -224 -168 -259 l0 -29 234 0
233 0 7 38 c3 20 6 61 6 90 0 49 -1 52 -26 52 -14 0 -39 -11 -56 -25 -27 -23
-37 -25 -134 -25 -68 0 -104 4 -104 11 0 6 53 64 117 130 170 173 188 203 184
316 -3 100 -155 157 -316 118z"/>
<path d="M6164 1721 c-33 -21 -64 -40 -70 -42 -27 -12 -124 -72 -133 -83 -9
-10 -7 -19 7 -36 l18 -22 54 30 c30 16 61 27 68 25 9 -4 12 -59 12 -233 0
-259 3 -248 -84 -265 -42 -8 -52 -15 -54 -33 l-3 -22 223 2 c215 3 223 4 223
23 0 16 -10 22 -53 30 -33 6 -59 18 -68 29 -11 16 -14 75 -14 309 0 179 -4
296 -10 308 -16 29 -50 23 -116 -20z"/>
<path d="M6730 1748 c-152 -41 -150 -39 -150 -110 l0 -58 50 0 c38 0 50 4 50
15 0 37 47 91 88 102 27 7 70 -20 90 -58 18 -34 8 -126 -20 -179 -13 -23 -52
-77 -87 -119 -116 -140 -181 -240 -181 -281 0 -20 5 -20 234 -20 l233 0 7 38
c3 20 6 61 6 90 0 51 -1 52 -29 52 -19 0 -34 -8 -43 -22 -14 -21 -24 -23 -127
-26 -95 -3 -111 -2 -111 12 0 8 54 71 121 138 142 145 179 201 179 273 0 56
-25 106 -62 127 -62 34 -175 46 -248 26z"/>
<path d="M2757 1674 c-4 -4 -7 -66 -7 -138 0 -72 -4 -136 -8 -143 -5 -8 -49
-13 -137 -15 l-130 -3 0 -30 0 -30 132 -3 c156 -3 142 14 146 -172 l2 -125 32
-3 32 -3 3 148 3 148 137 3 c127 2 137 4 143 23 13 41 -9 48 -148 51 l-132 3
-5 145 -5 145 -25 3 c-14 2 -29 0 -33 -4z"/>
<path d="M1721 1539 c-65 -40 -91 -91 -51 -102 14 -4 25 2 36 19 19 28 49 32
59 7 16 -40 35 -126 35 -157 0 -24 -13 -48 -55 -99 -55 -66 -56 -67 -102 -64
l-46 2 -13 -48 c-11 -44 -11 -48 8 -58 51 -27 122 14 187 109 30 43 48 41 56
-6 10 -61 38 -98 79 -106 59 -11 105 3 148 46 41 41 44 54 15 72 -14 9 -22 6
-40 -17 -30 -38 -52 -28 -66 31 -7 26 -16 63 -22 83 -16 63 -11 84 33 135 58
66 69 74 90 63 39 -21 56 -11 68 41 6 27 9 54 5 60 -9 15 -71 12 -103 -4 -15
-8 -44 -37 -66 -65 -21 -29 -44 -50 -50 -48 -6 2 -14 20 -19 40 -14 59 -48 87
-104 87 -31 0 -60 -7 -82 -21z"/>
<path d="M4874 1465 c-4 -8 -4 -22 0 -30 5 -13 50 -15 321 -15 l315 0 0 30 0
30 -315 0 c-271 0 -316 -2 -321 -15z"/>
<path d="M4874 1246 c-3 -14 -3 -30 1 -35 4 -7 111 -11 321 -11 l315 0 -3 33
-3 32 -312 3 -313 2 -6 -24z"/>
</g>
</svg>
