<?xml version="1.0" standalone="no"?>
<!DOCTYPE svg PUBLIC "-//W3C//DTD SVG 20010904//EN"
 "http://www.w3.org/TR/2001/REC-SVG-20010904/DTD/svg10.dtd">
<svg version="1.0" xmlns="http://www.w3.org/2000/svg"
 width="906.000000pt" height="906.000000pt" viewBox="0 0 906.000000 906.000000"
 preserveAspectRatio="xMidYMid meet">

<g transform="translate(0.000000,906.000000) scale(0.100000,-0.100000)"
fill="#000000" stroke="none">
<path d="M4066 8734 c-93 -22 -144 -42 -241 -92 -49 -26 -92 -49 -95 -52 -3
-3 -28 -23 -57 -43 -63 -46 -211 -201 -252 -265 -17 -26 -34 -51 -38 -57 -5
-5 -22 -39 -40 -75 -72 -148 -113 -326 -113 -492 l0 -71 -23 21 c-13 12 -27
22 -32 22 -5 0 -16 6 -24 14 -28 24 -132 76 -151 76 -10 0 -21 4 -24 9 -11 17
-82 24 -241 24 -162 -1 -241 -8 -251 -24 -3 -5 -14 -9 -25 -9 -10 0 -27 -4
-37 -9 -9 -6 -49 -26 -89 -45 -81 -40 -170 -105 -223 -163 -43 -46 -100 -119
-100 -128 0 -4 -13 -25 -28 -48 -69 -101 -102 -234 -102 -409 0 -132 5 -168
46 -303 24 -80 99 -243 119 -258 5 -4 -17 -4 -50 0 -143 18 -284 5 -410 -39
-46 -16 -198 -91 -213 -105 -7 -7 -26 -20 -41 -29 -34 -20 -221 -208 -221
-222 0 -5 -7 -15 -15 -22 -8 -7 -22 -26 -31 -44 -112 -216 -134 -291 -141
-481 -4 -122 0 -149 40 -280 66 -216 278 -466 517 -611 36 -21 67 -41 70 -44
9 -9 132 -70 142 -70 4 0 27 -8 51 -19 55 -24 93 -38 142 -50 22 -6 49 -17 59
-24 17 -12 14 -16 -37 -40 -30 -15 -60 -34 -67 -42 -7 -8 -17 -15 -22 -15 -6
0 -26 -12 -45 -27 -46 -36 -263 -246 -263 -255 0 -3 -15 -29 -34 -57 -30 -46
-87 -156 -106 -206 -30 -75 -43 -134 -61 -268 -18 -131 6 -310 61 -452 85
-221 292 -396 525 -444 193 -40 318 -35 530 21 111 29 322 124 333 151 2 4 9
7 15 7 9 0 11 -35 9 -128 -2 -71 1 -153 6 -183 11 -56 2 -89 -22 -89 -18 0
-99 -42 -138 -72 -75 -58 -178 -171 -178 -196 0 -5 -7 -15 -15 -22 -18 -15
-74 -132 -101 -210 -29 -84 -26 -317 5 -420 12 -41 25 -87 28 -103 3 -15 8
-27 12 -27 4 0 13 -17 21 -37 39 -109 229 -359 341 -449 141 -113 167 -132
229 -168 36 -22 87 -52 113 -68 27 -15 54 -28 60 -28 7 0 39 -14 72 -30 33
-17 66 -30 73 -30 7 0 34 -9 60 -19 26 -10 101 -36 167 -56 66 -20 128 -41
137 -46 10 -5 29 -9 42 -9 14 0 27 -4 30 -9 3 -5 20 -11 38 -14 18 -4 49 -9
68 -12 19 -4 44 -10 55 -15 31 -14 105 -20 280 -26 88 -2 170 -7 182 -9 25 -6
53 -60 53 -101 0 -23 2 -24 81 -24 l82 0 -7 43 c-4 23 -12 80 -17 127 -5 47
-14 121 -20 165 -56 454 -88 829 -108 1305 -5 113 -12 223 -16 246 -7 38 -3
47 48 125 67 104 96 153 144 248 l37 74 23 -64 c13 -35 31 -78 39 -96 12 -27
14 -155 14 -900 0 -477 3 -959 6 -1070 l7 -203 74 0 73 0 0 94 0 93 108 6
c267 15 405 30 649 68 157 25 349 69 385 89 10 6 25 10 33 10 8 0 23 4 33 9 9
5 28 13 42 19 55 22 168 78 215 108 207 130 396 355 456 541 60 191 63 332 10
508 -31 106 -120 238 -225 338 -51 48 -192 127 -226 127 -10 0 -22 5 -25 10
-3 6 -16 10 -27 10 -12 0 -36 5 -54 12 -34 12 -34 9 -4 68 6 11 10 29 10 39 0
11 4 22 9 25 5 3 12 53 16 111 4 58 9 105 12 105 3 0 27 -19 53 -42 56 -50
120 -98 173 -127 20 -12 53 -30 72 -41 20 -11 42 -20 50 -20 8 0 15 -4 15 -10
0 -5 11 -10 24 -10 14 0 27 -4 30 -9 10 -15 77 -24 196 -24 133 -1 152 3 239
46 135 67 251 214 304 383 45 144 43 328 -3 474 -26 79 -93 218 -137 282 -39
57 -42 72 -11 62 37 -11 259 -8 323 5 62 12 110 29 180 63 58 27 178 126 213
173 16 22 36 46 45 54 9 7 17 17 17 22 0 4 13 29 30 56 27 44 58 122 89 228
14 47 10 335 -7 405 -21 94 -81 227 -141 313 -45 67 -170 179 -239 215 -34 18
-60 38 -56 43 3 5 42 35 87 67 94 66 293 260 356 348 124 174 181 334 181 516
0 203 -66 345 -239 514 -93 91 -97 94 -211 149 -41 20 -83 41 -92 46 -10 5
-27 9 -37 9 -11 0 -22 4 -25 9 -16 25 -362 35 -466 14 -143 -30 -205 -49 -292
-91 -11 -5 2 27 35 83 45 77 107 208 107 227 0 9 5 20 10 23 6 3 10 17 10 30
0 13 4 26 9 29 5 3 11 20 14 38 3 18 13 74 23 123 23 122 23 358 0 480 -10 50
-20 105 -23 123 -3 18 -9 35 -14 38 -5 3 -9 13 -9 22 0 15 -93 213 -112 237
-85 110 -176 204 -233 240 -16 11 -32 23 -35 26 -9 13 -173 89 -191 89 -10 0
-20 4 -23 9 -11 17 -90 24 -271 24 -181 0 -260 -7 -271 -24 -3 -5 -16 -9 -29
-9 -13 0 -27 -4 -30 -10 -3 -5 -14 -10 -24 -10 -23 0 -193 -85 -249 -125 -24
-16 -53 -35 -65 -42 -31 -17 -257 -244 -272 -273 -7 -14 -22 -34 -34 -44 -12
-11 -21 -24 -21 -31 0 -7 -9 -20 -20 -30 -11 -10 -20 -24 -20 -30 0 -7 -6 -17
-13 -24 -11 -8 -16 3 -26 57 -7 37 -16 76 -21 87 -5 11 -18 49 -30 85 -19 58
-97 227 -110 240 -3 3 -22 30 -43 61 -51 76 -167 196 -248 256 -60 45 -170
104 -244 132 -114 42 -339 54 -459 25z m724 -1933 c41 -6 102 -14 135 -17 33
-4 65 -10 70 -14 6 -4 35 -10 66 -14 58 -6 237 -61 254 -77 5 -5 15 -9 22 -9
17 0 154 -68 223 -110 154 -96 278 -211 434 -401 23 -27 135 -200 171 -261 42
-73 145 -290 145 -306 0 -5 9 -27 20 -50 11 -22 20 -48 20 -56 0 -8 5 -18 10
-21 6 -3 10 -17 10 -30 0 -13 5 -27 10 -30 6 -3 10 -17 10 -30 0 -13 4 -26 9
-29 5 -3 11 -18 14 -33 4 -16 11 -50 17 -78 38 -173 49 -271 49 -430 0 -131
-10 -238 -29 -330 -6 -27 -14 -65 -17 -83 -3 -18 -9 -35 -14 -38 -5 -3 -9 -14
-9 -25 0 -10 -5 -28 -10 -39 -6 -11 -15 -29 -20 -40 -6 -11 -10 -27 -10 -35 0
-8 -4 -15 -10 -15 -5 0 -10 -7 -10 -15 0 -15 -31 -87 -41 -95 -4 -3 -17 -25
-30 -49 -35 -63 -38 -68 -104 -156 -88 -118 -266 -293 -371 -365 -12 -8 -48
-34 -81 -57 -134 -93 -291 -172 -460 -229 -39 -13 -81 -24 -92 -24 -11 0 -22
-4 -25 -9 -3 -5 -23 -11 -43 -14 -21 -3 -63 -11 -93 -16 -249 -48 -464 -48
-720 0 -30 5 -72 13 -93 16 -20 3 -40 9 -43 14 -3 5 -15 9 -27 9 -38 0 -239
75 -362 136 -255 124 -427 261 -606 481 -67 82 -209 335 -209 372 0 10 -4 21
-9 27 -9 9 -36 83 -52 142 -5 17 -14 49 -19 70 -19 69 -38 196 -49 319 -9 97
-8 154 4 275 8 84 19 176 25 203 6 28 13 69 17 93 3 23 10 45 14 48 5 3 9 16
9 30 0 13 4 32 9 42 5 9 15 38 23 65 7 26 16 47 20 47 4 0 8 11 8 24 0 14 5
28 10 31 6 3 10 14 10 24 0 34 164 341 183 341 4 0 7 4 7 10 0 10 67 101 114
154 14 16 26 33 26 38 0 4 7 8 15 8 8 0 15 6 15 13 0 15 138 148 219 212 28
22 56 45 63 51 59 50 168 116 273 168 149 72 232 103 365 136 25 6 59 16 76
21 17 5 48 9 70 9 21 0 46 5 54 10 18 12 232 6 340 -9z m-1910 -4703 c30 -62
45 -85 63 -106 10 -10 17 -23 17 -29 0 -21 178 -192 251 -241 l77 -51 1 -102
c1 -56 7 -124 12 -151 6 -27 8 -52 5 -56 -6 -5 -72 24 -86 38 -11 12 -112 70
-121 70 -5 0 -9 5 -9 10 0 6 -5 10 -10 10 -32 0 -283 181 -360 260 -14 14 -47
43 -75 65 -81 65 -79 62 -64 93 23 47 91 126 138 163 40 30 112 67 133 68 4 1
17 -18 28 -41z m3345 -109 c5 -5 15 -9 22 -9 36 0 207 -100 217 -127 5 -11
-131 -113 -149 -113 -3 0 -53 -32 -111 -70 -57 -39 -110 -73 -118 -76 -10 -4
-15 31 -23 158 l-10 163 39 47 c38 46 41 48 81 42 23 -4 46 -10 52 -15z
m-1292 -72 c75 -76 192 -167 215 -167 5 0 15 -7 22 -15 10 -12 7 -22 -16 -52
-15 -21 -32 -39 -36 -41 -4 -2 -8 -9 -8 -15 0 -6 -7 -19 -17 -29 -9 -10 -21
-27 -27 -37 -9 -16 -70 -108 -125 -191 -9 -14 -22 -36 -29 -50 -19 -37 -41
-64 -47 -58 -3 2 -7 142 -10 309 -3 167 -7 332 -10 367 -2 34 -2 62 0 62 3 0
42 -37 88 -83z m-671 -284 c2 -126 1 -230 0 -233 -4 -5 -13 6 -67 76 -16 21
-64 75 -107 118 -43 44 -78 83 -78 86 0 4 35 30 78 58 42 27 93 66 111 86 19
20 41 36 48 36 9 0 13 -52 15 -227z m1691 30 c-2 -138 -5 -159 -20 -168 -9 -5
-23 -15 -30 -22 -7 -6 -22 -15 -33 -18 -11 -3 -20 -11 -20 -16 0 -5 -5 -9 -11
-9 -6 0 -42 -20 -80 -45 -38 -25 -72 -45 -75 -45 -3 0 -24 -13 -47 -28 -23
-15 -55 -34 -72 -42 -16 -8 -32 -17 -35 -20 -3 -3 -19 -13 -36 -22 l-30 -17
-11 57 c-13 62 -33 281 -33 348 l0 41 101 6 c61 4 125 14 162 27 71 25 190 78
197 90 5 7 61 39 71 40 3 0 4 -71 2 -157z m-3343 -6 c94 -89 210 -183 295
-238 22 -14 57 -37 77 -50 l38 -24 -33 -8 c-17 -4 -50 -13 -72 -18 -65 -17
-164 -34 -312 -54 -50 -7 -53 -6 -53 14 0 11 -4 21 -10 21 -5 0 -10 9 -10 19
0 11 -4 22 -9 25 -22 14 -50 230 -39 301 13 85 18 105 24 105 3 0 50 -42 104
-93z m4008 -17 c44 -100 47 -114 47 -235 0 -147 -25 -240 -96 -354 -15 -23
-68 -29 -111 -12 -13 5 -43 14 -68 21 -25 7 -56 16 -70 20 -14 4 -45 13 -70
20 -25 7 -54 16 -65 20 -11 4 -45 13 -75 20 -67 15 -131 36 -190 62 -90 40
-91 40 -79 55 6 7 18 13 25 13 8 0 14 5 14 10 0 6 5 10 10 10 6 0 41 20 78 44
37 24 94 61 127 82 70 45 92 59 123 75 12 7 22 16 22 21 0 4 5 8 11 8 6 0 29
13 52 29 56 39 216 141 246 157 29 15 35 9 69 -66z m-1298 -142 c0 -90 4 -179
9 -198 5 -19 12 -60 16 -91 l6 -56 -48 -29 c-26 -16 -61 -37 -78 -47 -16 -9
-38 -20 -47 -23 -10 -4 -18 -10 -18 -15 0 -5 -5 -9 -10 -9 -21 0 -186 -120
-246 -178 l-34 -33 0 95 0 95 45 64 c25 36 45 70 45 76 0 6 5 11 10 11 6 0 10
5 10 10 0 6 23 44 50 86 28 41 50 78 50 80 0 6 131 196 140 204 3 3 17 21 30
40 13 19 30 41 37 48 7 7 13 18 13 23 0 5 5 9 10 9 6 0 10 -61 10 -162z
m-1796 97 c80 -17 174 -19 226 -6 105 27 114 25 196 -54 l32 -31 -15 -69 c-8
-39 -17 -82 -20 -98 -3 -15 -9 -30 -14 -33 -5 -3 -9 -14 -9 -24 0 -11 -9 -35
-20 -55 -11 -20 -20 -40 -20 -45 0 -6 -9 -29 -19 -53 -10 -23 -21 -50 -25 -59
-6 -19 -26 -25 -26 -8 0 6 -5 10 -10 10 -6 0 -29 12 -53 27 -23 15 -67 41 -97
57 -30 16 -66 36 -80 45 -14 9 -46 27 -71 40 -26 13 -51 33 -57 44 -13 28 -36
312 -27 327 4 6 14 9 22 6 8 -4 47 -13 87 -21z m606 -272 c0 -7 4 -13 8 -13 5
0 15 -12 23 -27 8 -16 17 -30 20 -33 20 -16 94 -193 101 -240 11 -87 21 -230
16 -230 -3 0 -38 17 -79 38 -190 99 -268 151 -269 179 0 12 5 25 10 28 6 3 10
17 10 30 0 13 5 27 10 30 6 3 10 14 10 23 0 9 6 28 13 42 7 14 28 73 47 131
l35 106 22 -26 c13 -14 23 -32 23 -38z m-903 -99 c26 -15 53 -30 58 -34 6 -4
46 -27 90 -50 44 -24 82 -46 85 -49 3 -3 19 -13 35 -21 17 -8 63 -34 103 -57
40 -24 77 -43 82 -43 6 0 10 -4 10 -8 0 -4 22 -19 49 -33 37 -18 47 -27 39
-36 -6 -7 -20 -13 -32 -13 -12 0 -26 -4 -32 -8 -5 -4 -27 -14 -49 -21 -42 -13
-78 -27 -107 -42 -10 -5 -27 -9 -38 -9 -11 0 -20 -4 -20 -10 0 -5 -9 -10 -20
-10 -11 0 -28 -4 -38 -10 -24 -13 -142 -46 -234 -65 l-77 -16 -48 28 c-26 15
-52 31 -58 35 -5 5 -39 30 -75 57 -126 94 -336 320 -312 335 4 2 30 7 57 11
85 11 227 37 285 52 30 8 72 18 93 23 21 4 41 10 44 14 14 14 65 4 110 -20z
m2523 -70 c19 -16 169 -94 181 -94 5 0 28 -9 52 -19 23 -11 53 -22 67 -24 14
-3 66 -17 115 -31 50 -14 120 -34 157 -44 37 -10 71 -21 74 -25 4 -4 18 -7 31
-7 33 0 29 -13 -14 -50 -21 -17 -49 -41 -63 -53 -42 -36 -204 -137 -220 -137
-7 0 -45 -17 -112 -51 -10 -5 -26 -9 -36 -9 -10 0 -22 -4 -27 -8 -6 -5 -29
-14 -52 -20 -24 -7 -60 -17 -80 -23 -35 -10 -44 -7 -133 38 -96 49 -231 132
-257 159 -8 8 -18 14 -23 14 -5 0 -15 6 -22 13 -7 7 -45 37 -85 66 -83 61 -83
59 17 113 36 19 85 46 110 60 25 14 74 41 110 61 36 19 90 48 120 65 54 30 61
31 90 6z m-604 -335 c6 -10 179 -142 215 -164 9 -5 50 -33 92 -62 41 -29 86
-55 101 -59 27 -6 36 -24 14 -24 -7 -1 -44 -5 -83 -11 -78 -10 -204 -25 -340
-39 -166 -17 -255 -29 -265 -35 -6 -4 -10 28 -10 93 l0 99 58 58 c31 32 80 75
109 96 28 21 54 43 58 49 8 13 42 13 51 -1z m-1074 -76 c51 -27 114 -56 138
-66 25 -10 53 -22 62 -28 10 -5 24 -9 32 -9 15 0 24 -32 36 -135 5 -38 12 -87
16 -109 7 -37 6 -38 -14 -27 -11 6 -66 11 -122 11 -148 0 -376 37 -442 71 -10
5 -25 9 -33 9 -17 0 -127 34 -280 87 -55 19 -108 37 -117 40 -30 9 -21 33 11
33 17 0 33 5 36 10 3 6 22 10 41 10 19 0 34 5 34 10 0 6 11 10 24 10 14 0 28
5 31 10 3 6 16 10 29 10 12 0 26 4 31 8 6 4 28 14 50 21 22 7 49 16 60 21 11
5 47 16 80 25 33 10 71 21 85 25 63 21 115 11 212 -37z"/>
<path d="M3617 5745 c-85 -21 -117 -70 -117 -177 0 -109 42 -158 135 -158 38
0 47 5 78 40 55 65 73 160 43 231 -27 65 -65 83 -139 64z"/>
<path d="M5569 5735 c-15 -8 -38 -37 -53 -64 -52 -100 -28 -217 52 -255 54
-26 98 -21 135 17 42 41 57 87 57 171 0 72 -17 118 -49 136 -28 14 -111 12
-142 -5z"/>
<path d="M4110 5426 c-13 -36 -1 -93 34 -160 33 -63 122 -166 143 -166 7 0 13
-4 13 -9 0 -5 37 -28 83 -52 l82 -44 120 1 c127 0 138 4 240 68 35 22 195 177
195 188 0 4 16 30 35 57 37 51 45 95 20 105 -27 10 -49 -6 -170 -124 -115
-113 -194 -170 -235 -170 -10 0 -22 -4 -25 -10 -8 -14 -80 -13 -124 2 -82 26
-139 60 -192 115 -52 54 -119 143 -119 158 0 4 -9 20 -21 36 -26 37 -66 39
-79 5z"/>
<path d="M1 730 l0 -285 37 41 c128 142 128 346 0 488 l-37 41 0 -285z"/>
</g>
</svg>
