<?xml version="1.0" standalone="no"?>
<!DOCTYPE svg PUBLIC "-//W3C//DTD SVG 20010904//EN"
 "http://www.w3.org/TR/2001/REC-SVG-20010904/DTD/svg10.dtd">
<svg version="1.0" xmlns="http://www.w3.org/2000/svg"
 width="904.000000pt" height="958.000000pt" viewBox="0 0 904.000000 958.000000"
 preserveAspectRatio="xMidYMid meet">

<g transform="translate(0.000000,958.000000) scale(0.100000,-0.100000)"
fill="#000000" stroke="none">
<path d="M4305 9161 c-42 -11 -107 -45 -143 -76 -45 -38 -87 -109 -141 -241
-27 -66 -86 -207 -131 -314 -122 -290 -158 -376 -197 -470 -19 -47 -43 -103
-53 -125 -22 -50 -113 -266 -135 -322 -10 -24 -23 -43 -30 -43 -12 0 -109 58
-730 435 -470 285 -597 359 -636 373 -19 7 -70 12 -113 12 -67 0 -88 -5 -144
-31 -36 -17 -85 -52 -109 -76 -106 -109 -123 -235 -65 -468 18 -71 37 -148 42
-170 10 -47 39 -166 75 -320 15 -60 33 -137 40 -170 8 -33 25 -107 39 -165 14
-58 34 -144 46 -192 11 -49 29 -125 40 -170 10 -46 21 -99 22 -118 l3 -35 -85
-6 c-47 -4 -145 -12 -217 -18 -73 -6 -190 -15 -260 -21 -71 -5 -180 -14 -243
-20 -63 -5 -169 -14 -235 -20 -66 -5 -176 -14 -245 -20 -334 -28 -397 -52
-482 -183 -43 -66 -58 -117 -58 -199 0 -132 46 -208 215 -353 69 -58 130 -112
137 -118 7 -7 92 -80 188 -162 183 -157 460 -396 520 -449 20 -17 65 -56 100
-86 117 -99 109 -85 68 -123 -20 -17 -75 -66 -123 -107 -48 -41 -93 -79 -99
-85 -6 -5 -40 -35 -76 -65 -36 -30 -67 -57 -70 -60 -3 -3 -120 -104 -260 -225
-140 -121 -257 -222 -260 -225 -5 -5 -112 -96 -165 -140 -118 -97 -168 -184
-174 -298 -4 -88 11 -149 55 -218 60 -96 160 -154 289 -168 76 -8 586 -51 900
-76 72 -5 180 -14 240 -20 61 -5 153 -12 205 -15 52 -4 105 -8 118 -11 27 -5
27 -5 -20 -199 -15 -66 -46 -199 -69 -295 -22 -96 -53 -229 -69 -295 -29 -120
-58 -242 -86 -365 -32 -140 -56 -237 -67 -280 -20 -74 -14 -207 11 -263 43
-96 123 -169 222 -204 48 -17 178 -16 228 1 39 14 164 87 472 276 74 45 149
90 165 100 17 9 91 54 165 100 293 180 547 330 557 330 6 0 27 -39 46 -87 20
-49 57 -137 83 -198 25 -60 68 -162 94 -225 26 -63 66 -158 88 -210 37 -88 81
-194 226 -540 89 -210 118 -250 229 -307 42 -22 69 -27 145 -31 91 -4 95 -4
167 32 80 40 136 94 171 167 12 24 97 224 189 444 92 220 175 418 185 440 10
22 32 74 49 115 16 41 58 140 91 220 34 80 64 153 67 163 10 32 -15 45 408
-212 94 -57 226 -137 295 -179 69 -41 240 -145 380 -230 140 -86 275 -161 299
-169 54 -16 180 -17 218 -2 82 34 102 47 149 94 100 103 125 220 85 390 -12
50 -29 119 -37 155 -8 36 -19 81 -24 100 -5 19 -22 94 -39 165 -17 72 -41 177
-55 235 -14 58 -36 155 -50 215 -14 61 -48 205 -76 320 -57 241 -58 235 39
235 31 0 94 4 141 9 47 5 148 14 225 21 77 6 273 22 435 36 162 13 354 29 425
35 278 21 337 40 424 135 71 77 94 144 89 259 -2 72 -8 100 -28 139 -24 48
-84 115 -145 166 -30 25 -176 151 -185 160 -3 3 -34 30 -70 60 -36 30 -67 57
-70 60 -3 3 -50 44 -105 91 -55 47 -172 148 -260 224 -263 226 -277 239 -319
275 -61 53 -66 58 -66 69 0 14 40 50 264 241 30 25 116 99 192 165 77 67 204
177 284 245 80 68 147 127 150 130 3 3 34 30 70 60 36 30 67 57 70 60 3 3 36
32 73 64 107 93 147 173 147 296 0 138 -64 251 -180 316 -64 37 -115 45 -475
74 -71 6 -179 15 -240 20 -60 5 -168 14 -240 20 -71 6 -186 15 -255 21 -69 5
-164 14 -211 20 -47 5 -113 9 -146 9 -37 0 -65 5 -71 13 -11 12 -2 52 148 687
11 47 38 162 60 255 22 94 49 208 60 255 11 47 31 135 46 195 43 182 27 281
-64 393 -66 80 -159 122 -272 122 -101 -1 -136 -16 -430 -195 -135 -82 -328
-199 -430 -260 -102 -61 -246 -149 -320 -195 -74 -45 -151 -92 -170 -102 -19
-11 -46 -28 -60 -38 -64 -44 -68 -44 -89 2 -10 24 -34 79 -51 123 -17 44 -43
104 -56 133 -13 29 -24 55 -24 57 0 2 -33 82 -74 177 -41 95 -90 211 -109 258
-60 146 -138 333 -156 375 -10 22 -35 83 -56 135 -89 219 -182 299 -355 306
-47 2 -98 0 -115 -5z m127 -436 c11 -27 30 -73 44 -102 13 -30 24 -56 24 -58
0 -5 83 -200 116 -273 13 -29 24 -55 24 -58 0 -3 24 -62 54 -132 126 -298 206
-490 206 -497 0 -4 -19 -5 -42 -2 -389 46 -510 47 -905 1 -29 -4 -53 -4 -53 0
0 3 32 81 71 173 149 354 253 603 303 723 92 220 120 280 130 277 5 -2 17 -25
28 -52z m-2196 -841 c115 -70 283 -171 374 -226 91 -55 240 -146 333 -201 92
-56 167 -106 167 -111 0 -6 -34 -28 -75 -50 -212 -108 -441 -275 -637 -462
l-87 -83 -11 37 c-5 20 -26 105 -45 187 -20 83 -46 195 -59 250 -13 55 -43
181 -66 280 -23 99 -45 196 -51 215 -11 43 -69 283 -69 287 0 11 40 -11 226
-123z m4554 122 c0 -3 -20 -87 -44 -188 -60 -252 -110 -462 -142 -598 -105
-455 -106 -460 -113 -460 -3 0 -37 30 -76 66 -215 200 -466 380 -677 485 -26
13 -48 29 -48 34 0 6 24 25 53 41 28 17 83 50 121 73 38 24 83 51 100 61 17 9
63 37 101 60 39 24 183 112 320 195 138 83 279 170 315 193 58 36 90 50 90 38z
m-2090 -757 c242 -31 500 -101 715 -196 607 -268 1082 -753 1333 -1364 48
-118 103 -288 122 -374 53 -252 63 -346 63 -585 0 -281 -25 -462 -99 -713
-249 -849 -936 -1518 -1784 -1738 -250 -65 -386 -82 -655 -82 -256 0 -433 22
-645 81 -19 6 -62 18 -95 27 -57 15 -329 120 -350 135 -5 4 -55 31 -110 60
-575 305 -1034 865 -1220 1490 -44 147 -67 254 -90 416 -19 131 -22 506 -5
621 16 114 30 193 40 233 5 19 16 64 25 100 9 36 21 81 25 100 15 61 85 241
134 345 258 550 720 1001 1281 1248 134 59 344 128 455 150 14 2 59 11 100 20
217 44 525 55 760 26z m-2900 -1220 c-67 -132 -151 -350 -199 -514 -29 -98
-71 -298 -71 -335 0 -34 -13 -45 -32 -28 -7 7 -38 33 -68 58 -30 25 -57 47
-60 50 -5 6 -212 185 -270 234 -33 27 -173 149 -180 156 -6 6 -146 127 -184
160 -16 14 -53 45 -81 70 -28 25 -67 58 -86 75 l-34 30 65 7 c36 4 261 23 500
43 239 20 473 40 520 44 47 5 113 9 148 10 l62 1 -30 -61z m5377 51 c54 -6
289 -26 523 -45 554 -46 560 -47 560 -54 0 -4 -17 -21 -37 -38 -21 -17 -56
-47 -78 -66 -266 -232 -859 -737 -862 -733 -3 3 -13 51 -24 108 -47 262 -133
527 -245 751 l-44 87 55 0 c30 0 98 -5 152 -10z m-5647 -1799 c0 -32 44 -244
66 -321 61 -207 103 -318 184 -487 27 -56 46 -104 42 -106 -4 -2 -47 0 -97 4
-49 5 -173 15 -275 24 -529 43 -904 75 -908 79 -2 2 11 17 29 33 18 15 54 46
79 69 25 22 160 139 300 259 140 120 257 221 260 224 3 3 34 31 70 61 68 57
90 77 178 154 57 50 72 51 72 7z m5844 -33 c39 -35 73 -65 76 -68 3 -3 34 -30
70 -60 69 -59 73 -62 220 -190 116 -100 104 -90 325 -280 170 -146 197 -171
191 -177 -7 -7 -1248 -108 -1278 -104 -4 1 13 42 38 92 89 181 160 380 210
589 41 175 44 188 44 218 0 59 16 56 104 -20z m-5012 -1590 c38 -37 79 -74
219 -196 88 -77 369 -259 482 -313 26 -13 47 -28 47 -34 0 -6 -30 -29 -67 -52
-38 -22 -129 -78 -203 -123 -74 -46 -173 -105 -219 -132 -46 -27 -96 -57 -110
-67 -14 -10 -42 -28 -61 -38 -19 -11 -125 -75 -235 -141 -109 -67 -201 -120
-203 -118 -2 2 1 21 7 43 10 35 31 124 91 383 12 52 37 158 55 235 19 77 57
238 85 359 48 208 56 236 65 236 3 0 24 -19 47 -42z m4156 -50 c12 -51 62
-266 112 -478 50 -212 106 -450 125 -529 19 -79 32 -147 29 -150 -3 -3 -17 1
-32 10 -29 17 -376 227 -592 359 -74 45 -151 92 -171 104 -199 118 -299 182
-299 190 0 6 19 20 43 31 80 38 292 170 390 244 106 79 219 174 307 258 30 29
57 53 61 53 3 0 15 -42 27 -92z m-2389 -773 c240 -24 454 -18 683 17 43 6 80
9 83 6 6 -5 -19 -73 -55 -152 -10 -23 -46 -108 -80 -191 -34 -82 -80 -193
-102 -245 -22 -52 -56 -133 -75 -180 -19 -47 -43 -103 -53 -126 -11 -22 -29
-65 -40 -95 -21 -51 -30 -73 -65 -154 -9 -19 -20 -35 -24 -35 -8 0 -40 72
-213 485 -43 105 -90 215 -103 245 -12 30 -46 111 -75 180 -29 69 -65 154 -80
190 -16 35 -26 68 -23 73 3 5 19 6 37 3 17 -3 100 -12 185 -21z"/>
<path d="M3270 5814 c-125 -24 -200 -54 -295 -118 -118 -78 -241 -226 -266
-319 -43 -159 155 -293 286 -192 19 14 51 52 71 83 72 114 167 172 281 172
114 -1 199 -52 273 -165 52 -80 105 -115 174 -115 61 0 104 19 143 63 56 64
57 151 1 244 -30 52 -145 178 -194 213 -68 49 -162 94 -243 116 -59 16 -189
26 -231 18z"/>
<path d="M5385 5813 c-192 -43 -279 -88 -400 -208 -149 -148 -191 -248 -147
-347 41 -94 148 -133 245 -90 37 17 55 34 90 89 51 79 97 123 169 159 70 35
162 37 233 3 55 -26 150 -115 177 -166 9 -17 35 -45 59 -62 35 -26 51 -31 99
-31 129 0 218 118 178 236 -44 126 -205 290 -352 358 -106 49 -272 77 -351 59z"/>
<path d="M3222 4572 c-70 -22 -139 -122 -129 -191 5 -43 35 -110 71 -164 14
-21 26 -41 26 -44 0 -19 157 -211 236 -288 359 -355 838 -498 1284 -384 114
29 176 54 305 119 215 109 434 306 568 511 133 201 147 246 106 334 -40 86
-139 126 -233 95 -33 -11 -106 -82 -106 -103 0 -6 -30 -55 -67 -111 -160 -240
-404 -418 -668 -487 -72 -18 -115 -23 -215 -22 -116 0 -144 4 -255 34 -48 14
-60 18 -155 63 -210 98 -406 285 -526 503 -40 72 -49 83 -88 109 -38 26 -113
39 -154 26z"/>
</g>
</svg>
